<svg width="1440" height="810" viewBox="0 0 1440 810" fill="none" xmlns="http://www.w3.org/2000/svg">
<g clip-path="url(#clip0_127_1090)">
<rect width="1440" height="810" fill="#181818"/>
<g clip-path="url(#clip1_127_1090)">
<path d="M830.496 495.06L817.445 492.612C809.294 491.082 800.867 492.716 793.877 497.179L782.684 504.326C776.127 508.511 767.446 504.459 766.447 496.74L764.744 483.571C763.682 475.344 759.526 467.833 753.119 462.562L742.867 454.128C736.859 449.186 738.036 439.672 745.061 436.341L757.056 430.654C764.548 427.098 770.407 420.822 773.437 413.103L778.292 400.743C781.137 393.503 790.54 391.679 795.885 397.337L805 406.99C810.697 413.017 818.472 416.654 826.749 417.15L840.003 417.947C847.766 418.415 852.407 426.797 848.678 433.627L842.317 445.283C838.346 452.563 837.29 461.085 839.373 469.115L842.71 481.966C844.666 489.494 838.127 496.497 830.478 495.066L830.496 495.06Z" fill="#1EBFBF"/>
</g>
<path d="M874 -216.5C286.5 103.5 235 299.5 257.5 482.5C280 665.5 716.5 658 997 543.5C1123.75 491.761 1134.38 366.937 1065.5 298C981.943 214.378 764.785 151.5 874 314.5C973.5 463 1099.5 774.5 829 866.5" stroke="white" stroke-width="8"/>
<circle cx="269" cy="506" r="59" fill="#E94A60"/>
<circle cx="420.5" cy="175.5" r="24.5" fill="#464646"/>
<circle cx="1201.5" cy="683.5" r="24.5" fill="#464646"/>
</g>
<defs>
<clipPath id="clip0_127_1090">
<rect width="1440" height="810" fill="white"/>
</clipPath>
<clipPath id="clip1_127_1090">
<rect width="111" height="112" fill="white" transform="translate(739 394)"/>
</clipPath>
</defs>
</svg>
