<svg width="400" height="92" viewBox="0 0 400 92" fill="none" xmlns="http://www.w3.org/2000/svg">
<g clip-path="url(#clip0_125_453)">
<path d="M3.75465 72.9841C2.14289 69.3624 1.21376 67.2956 3.14787 66.575C6.97816 65.1529 10.3344 63.1998 13.3683 61.2278C5.23367 52.0692 -0.0377204 39.8957 0.000203274 27.3809C0.038127 13.6336 5.72668 6.90211 10.4861 3.65964C15.7385 0.0948091 21.0099 0 21.5977 0C22.1856 0 27.438 0.113771 32.6904 3.73548C37.4309 6.99692 43.0625 13.7663 43.0246 27.5136C42.9867 39.2131 39.4977 49.5283 32.6525 58.1749C31.7802 59.2747 30.8511 60.3555 29.8651 61.3984C34.7573 64.5461 40.0476 66.2716 45.1863 66.2716C50.6852 66.2716 56.3169 64.6788 61.4745 61.7208C53.9846 52.5812 49.2062 40.3318 49.2441 27.5136C49.282 18.1465 51.8608 10.922 56.9236 6.04883C62.4984 0.72055 69.0782 0.189618 71.1071 0.151695C73.0222 -0.0568855 78.7866 -0.265465 84.0012 4.11472C89.519 8.74141 92.2875 16.6675 92.2496 27.6653C92.2116 40.5973 87.1488 52.9035 77.9902 62.3465C82.0481 64.9822 86.3714 66.4044 90.5999 66.4233C98.1277 66.4423 104.233 63.3136 108.765 57.0941C116.54 46.4565 118.644 27.7791 113.79 12.6855C112.88 9.86016 115.421 9.23442 118.246 8.32425C121.072 7.41408 123.1 6.57976 124.011 9.40507C129.946 27.817 127.234 50.0403 117.45 63.4653C110.851 72.4722 101.56 77.2316 90.5619 77.1936C83.0151 77.1747 75.7148 74.2925 69.4195 69.4762C61.9675 74.3873 53.4916 77.0799 45.1483 77.042C36.8051 77.004 28.5757 73.8753 21.5029 68.6798C17.3313 71.6568 12.5909 74.2735 7.31947 76.4921C6.63685 76.7765 5.59395 77.1178 3.75465 72.9841ZM71.2967 10.9031C70.8416 10.9031 67.201 11.0358 64.2619 13.937C61.4555 16.7243 60.0144 21.3131 59.9955 27.5705C59.9575 37.1842 63.5034 47.1012 69.7039 54.7618C69.7987 54.8945 69.9125 55.0083 70.0073 55.1221C77.3835 47.6321 81.4603 37.8858 81.4982 27.6274C81.5361 18.2223 79.1848 14.1835 77.1938 12.439C75.127 10.6186 72.7568 10.7703 72.3396 10.8272C71.8845 10.922 71.7328 10.922 71.2778 10.9031H71.2967ZM21.5598 10.7514C19.5878 10.8272 10.8085 12.0597 10.7516 27.4188C10.7136 36.7101 14.6577 46.4755 21.5219 54.2119C21.5977 54.2877 21.6546 54.3636 21.7305 54.4394C28.7084 47.196 32.2353 38.1702 32.2733 27.4757C32.3301 12.1166 23.5508 10.8462 21.5788 10.7514H21.5598Z" fill="#1EBFBF"/>
<path d="M154.406 5.57477H183.626C197.45 5.57477 202.948 12.4769 202.948 22.6594C202.948 29.5615 199.403 34.7002 193.695 36.9376C201.261 38.6253 204.617 45.4326 204.617 52.2588C204.617 64.4892 197.336 70.9362 182.678 70.9362H154.387V5.57477H154.406ZM164.968 14.1645V33.4107H182.147C189.334 33.4107 192.33 29.0306 192.33 23.7023C192.33 17.1605 188.594 14.1834 182.527 14.1834H164.968V14.1645ZM164.968 42.0953V62.4603H182.242C190.092 62.4603 193.923 58.9144 193.923 51.9175C193.923 45.7549 190.566 42.1142 182.621 42.1142H164.968V42.0953Z" fill="#181818"/>
<path d="M220.336 5.00592C224.546 5.00592 226.973 7.0538 226.973 11.1685C226.973 15.2832 224.546 17.3311 220.336 17.3311C216.127 17.3311 213.7 15.2832 213.7 11.1685C213.7 7.0538 216.127 5.00592 220.336 5.00592ZM225.665 25.0865V70.9362H215.103V25.0865H225.665Z" fill="#181818"/>
<path d="M271.041 63.105C268.045 69.078 262.451 72.1688 254.885 72.1688C242.655 72.1688 235.563 63.7687 235.563 48.1631C235.563 32.5575 243.129 23.9867 255.833 23.9867C262.28 23.9867 267.229 26.4138 270.396 31.0784V5.57477H280.958V70.9362H271.628L271.06 63.086L271.041 63.105ZM257.881 32.1024C249.841 32.1024 245.935 37.0514 245.935 48.1631C245.935 59.2747 249.955 63.9393 257.881 63.9393C265.162 63.9393 270.491 59.1799 270.491 47.9734C270.491 36.767 265.068 32.1024 257.881 32.1024Z" fill="#181818"/>
<path d="M302.043 5.00592C306.252 5.00592 308.68 7.0538 308.68 11.1685C308.68 15.2832 306.252 17.3311 302.043 17.3311C297.833 17.3311 295.406 15.2832 295.406 11.1685C295.406 7.0538 297.833 5.00592 302.043 5.00592ZM307.371 25.0865V70.9362H296.809V25.0865H307.371Z" fill="#181818"/>
<path d="M325.48 25.0865V20.3271C325.48 8.38115 331.548 3.52692 341.161 3.52692C344.062 3.52692 347.608 4.09577 349.846 5.21452L348.063 13.0647C346.471 12.3252 344.897 11.8512 342.64 11.8512C338.26 11.8512 335.738 13.9939 335.738 20.7253V25.1055H348.537V33.0505H335.738V70.9552H325.461V33.0505H317.345V25.1055H325.461L325.48 25.0865Z" fill="#181818"/>
<path d="M370.59 71.5051L352.007 25.0865H363.024L376.089 60.3935L389.078 25.0865H400L378.156 79.6208C374.515 88.5898 368.447 91.2065 360.787 91.2065C357.696 91.2065 355.458 90.8272 352.481 89.8033L353.885 81.6876C356.027 82.4272 357.715 82.9012 360.142 82.9012C363.233 82.9012 366.873 81.9721 369.016 76.1697L370.609 71.5051H370.59Z" fill="#181818"/>
</g>
<defs>
<clipPath id="clip0_125_453">
<rect width="400" height="91.2064" fill="white"/>
</clipPath>
</defs>
</svg>
