<svg width="80" height="80" viewBox="0 0 80 80" fill="none" xmlns="http://www.w3.org/2000/svg">
<path d="M2.36266 61.9261C1.34844 59.6471 0.763773 58.3466 1.98084 57.8931C4.39109 56.9983 6.50305 55.7692 8.41217 54.5283C3.29335 48.7652 -0.023736 41.1049 0.000127913 33.2298C0.0239919 24.5791 3.60358 20.3432 6.59851 18.3029C9.90364 16.0597 13.2207 16 13.5906 16C13.9606 16 17.2657 16.0716 20.5708 18.3506C23.5538 20.4029 27.0976 24.6626 27.0738 33.3133C27.0499 40.6753 24.8544 47.1663 20.547 52.6073C19.9981 53.2993 19.4134 53.9794 18.793 54.6357C21.8715 56.6164 25.2004 57.7022 28.434 57.7022C31.8943 57.7022 35.4381 56.6999 38.6836 54.8386C33.9705 49.0874 30.9636 41.3793 30.9874 33.3133C31.0113 27.4189 32.634 22.8728 35.8199 19.8063C39.3279 16.4534 43.4683 16.1193 44.745 16.0955C45.9501 15.9642 49.5774 15.833 52.8588 18.5892C56.3309 21.5006 58.073 26.4882 58.0492 33.4087C58.0253 41.5463 54.8394 49.2902 49.0763 55.2323C51.6298 56.8908 54.3503 57.7858 57.0111 57.7977C61.748 57.8096 65.5899 55.8409 68.4417 51.9272C73.3342 45.2333 74.6582 33.4803 71.6037 23.9825C71.0311 22.2046 72.6301 21.8109 74.4077 21.2381C76.186 20.6654 77.4622 20.1404 78.0354 21.9183C81.7701 33.5042 80.0635 47.4885 73.9068 55.9363C69.7543 61.604 63.9079 64.5989 56.9872 64.575C52.2383 64.5631 47.6445 62.7495 43.6831 59.7187C38.9938 62.8091 33.6602 64.5035 28.4101 64.4796C23.1601 64.4557 17.9816 62.4869 13.531 59.2176C10.9059 61.0909 7.92298 62.7375 4.60587 64.1336C4.17632 64.3125 3.52006 64.5273 2.36266 61.9261ZM44.8643 22.8609C44.5779 22.8609 42.287 22.9444 40.4376 24.77C38.6716 26.524 37.7648 29.4115 37.7529 33.3491C37.729 39.3986 39.9603 45.639 43.862 50.4595C43.9217 50.543 43.9933 50.6146 44.0529 50.6863C48.6945 45.9731 51.2599 39.8401 51.2837 33.3849C51.3076 27.4666 49.828 24.9251 48.5751 23.8274C47.2746 22.6819 45.7831 22.7773 45.5206 22.8131C45.2342 22.8728 45.1387 22.8728 44.8524 22.8609H44.8643ZM13.5668 22.7654C12.3259 22.8131 6.80138 23.5887 6.76558 33.2536C6.74166 39.1003 9.22354 45.2453 13.5429 50.1135C13.5906 50.1612 13.6264 50.209 13.6742 50.2567C18.0651 45.6987 20.2845 40.0191 20.3084 33.2894C20.3441 23.6245 14.8196 22.8251 13.5787 22.7654H13.5668Z" fill="#1EBFBF"/>
</svg>
